# xmcd
# Track frame offsets:
# 150
# 19685
# 31869
# 45271
# 55882
# 71428
# 85571
# 101307
# 111479
# 126950
# 144719
# 156920
# 170704
# 182629
# 196429
#
# Disc length: 2797 seconds
# Revision: 0
# Processed by: cddbd v1.5.1PL0 Copyright (c) Steve Scherf et al.
# Submitted via: VisiTrax 2.9.10.228 - For more info visit www.synapsa.com
#
DISCID=c60aeb0f
DTITLE=Various Artist - Classic Country Hits - CD 2
DYEAR=1985
DGENRE=Country
TTITLE0=Restless Hearts - I'll Still Be Lovin You
TTITLE1=Holly Dunn - Are You Ever Gonna Love Me
TTITLE2=Conway Twitty - Slow Hand
TTITLE3=David Houston - Baby Baby
TTITLE4=Dolly Parton - You're The Only One
TTITLE5=Emmylou Harris - One Of These Days
TTITLE6=George Straight - Baby's Gotton Good At Goodbyes
TTITLE7=Jim Reeves - Is It Really Over
TTITLE8=John Conlee - Rose Collored Glasses
TTITLE9=Johnny Duncan - Slow Dancing
TTITLE10=Mel Tellis - Who's Julie
TTITLE11=Randy Travis - Diggin' Up Bones
TTITLE12=Ronnie McDowell - Worlds Most Perfect Woman
TTITLE13=Tanya Tucker - Here's Some Love
TTITLE14=Waylon Jennings - Amanda
EXTD=
EXTT0=
EXTT1=
EXTT2=
EXTT3=
EXTT4=
EXTT5=
EXTT6=
EXTT7=
EXTT8=
EXTT9=
EXTT10=
EXTT11=
EXTT12=
EXTT13=
EXTT14=
PLAYORDER=
